Coordinates
version=1
nRows=16
nColumns=22
inDegrees=yes

Units are S.I. units (second, meters, Newtons, ...)
If the header above contains a line with 'inDegrees', this indicates whether rotational values are in degrees (yes) or radians (no).

endheader
time	pelvis_tilt	pelvis_list	pelvis_rotation	pelvis_tx	pelvis_ty	pelvis_tz	hip_flexion_r	hip_adduction_r	hip_rotation_r	knee_angle_r	ankle_angle_r	subtalar_angle_r	hip_flexion_l	hip_adduction_l	hip_rotation_l	knee_angle_l	ankle_angle_l	subtalar_angle_l	lumbar_extension	lumbar_bending	lumbar_rotation
      3.71000000	      3.61170075	      4.19137999	    159.86972238	      0.18160263	      0.94658986	     -0.32067153	     13.28501163	      5.69928468	      5.65109089	    -19.46369915	     10.04219249	      4.64097792	     31.58916161	     -4.90808754	     -8.37283468	    -68.37930987	      6.30192897	      3.09527581	     -8.85152507	      4.93780310	      2.02040995
      3.72000000	      3.58441105	      4.19120774	    160.34032853	      0.17407948	      0.94713395	     -0.32230738	     12.42287147	      5.52563856	      5.18617173	    -18.91207202	     10.40156476	      4.60538607	     32.58385651	     -5.36536123	     -8.71169400	    -67.24698989	      6.58484610	      2.64630695	     -8.88939227	      4.87368126	      2.36059772
      3.73000000	      3.55930263	      4.20650635	    160.80069825	      0.16650059	      0.94752511	     -0.32390159	     11.56506949	      5.38333663	      4.73620947	    -18.38064670	     10.76933224	      4.54870993	     33.48400681	     -5.82277222	     -9.04368092	    -65.92428539	      6.81634230	      2.20749033	     -8.92482061	      4.82321098	      2.70974553
      3.74000000	      3.53212065	      4.24421772	    161.24169983	      0.15887587	      0.94777155	     -0.32549279	     10.70987740	      5.28085316	      4.30212619	    -17.87667723	     11.14442253	      4.47435339	     34.28159872	     -6.29387426	     -9.37923625	    -64.42578751	      7.00972495	      1.79322418	     -8.96585636	      4.78395331	      3.05733097
      3.75000000	      3.50104435	      4.30181198	    161.66407581	      0.15117782	      0.94788028	     -0.32705454	      9.84715414	      5.21285222	      3.90899443	    -17.38623837	     11.52733525	      4.38308606	     34.97530882	     -6.76786986	     -9.71903790	    -62.76038438	      7.14242708	      1.39399720	     -9.00938878	      4.75910865	      3.40502941
      3.76000000	      3.45343641	      4.39000455	    162.07833906	      0.14337406	      0.94786869	     -0.32854551	      8.96584769	      5.17760188	      3.51154350	    -16.91939072	     11.91865156	      4.28999700	     35.55074146	     -7.23962964	    -10.05343171	    -60.93939819	      7.26208778	      1.06131846	     -9.07121889	      4.76383672	      3.73721193
      3.77000000	      3.39051769	      4.49873268	    162.49465949	      0.13544864	      0.94774462	     -0.32995176	      8.05775380	      5.16713077	      3.14481457	    -16.45572847	     12.31859163	      4.18980993	     36.01164896	     -7.67601965	    -10.35372515	    -58.96212441	      7.31763981	      0.75418063	     -9.14287821	      4.78490960	      4.06143945
      3.78000000	      3.31018479	      4.62953734	    162.92870623	      0.12736751	      0.94749629	     -0.33119940	      7.12865738	      5.17340793	      2.77336122	    -16.01025839	     12.74061506	      4.09087512	     36.36144692	     -8.06708285	    -10.61458721	    -56.84377757	      7.34753962	      0.49595954	     -9.22342372	      4.83824522	      4.34894181
      3.79000000	      3.21335149	      4.77729904	    163.37303640	      0.11912500	      0.94713785	     -0.33233581	      6.17446915	      5.19754633	      2.41312919	    -15.57323210	     13.15027010	      3.98946508	     36.60001306	     -8.41985139	    -10.85499319	    -54.58929558	      7.32101727	      0.24673762	     -9.30628609	      4.91213525	      4.58826832
      3.80000000	      3.10434905	      4.94264709	    163.85208800	      0.11072585	      0.94663649	     -0.33327874	      5.21925970	      5.23286986	      2.00254591	    -15.17615455	     13.58863340	      3.89903377	     36.74397839	     -8.70102861	    -11.01478767	    -52.21472519	      7.29859167	      0.05781728	     -9.38874716	      5.01485776	      4.79275133
      3.81000000	      2.99103943	      5.11998921	    164.35629732	      0.10217206	      0.94599217	     -0.33405302	      4.26483095	      5.28129707	      1.56722032	    -14.80586179	     14.03742690	      3.81649800	     36.80274912	     -8.92000128	    -11.10747516	    -49.73111802	      7.26727330	     -0.11451695	     -9.45787514	      5.14330501	      4.95688900
      3.82000000	      2.87526121	      5.30776663	    164.88381185	      0.09347828	      0.94520579	     -0.33466708	      3.31308570	      5.34426321	      1.11895505	    -14.46107136	     14.49383423	      3.74246593	     36.78191894	     -9.07837757	    -11.12486366	    -47.15291150	      7.23692799	     -0.30483656	     -9.51267327	      5.29253356	      5.09136467
      3.83000000	      2.76941089	      5.50096692	    165.43559043	      0.08466631	      0.94425702	     -0.33512872	      2.38747666	      5.42044879	      0.63348451	    -14.15543558	     14.96151629	      3.67856240	     36.70332766	     -9.18082666	    -11.06514614	    -44.49972062	      7.22196813	     -0.50673866	     -9.53877492	      5.45885306	      5.19096722
      3.84000000	      2.67360677	      5.69879862	    165.99917142	      0.07576609	      0.94315773	     -0.33546361	      1.48761530	      5.51173710	      0.13750976	    -13.88517072	     15.43392993	      3.62768366	     36.57018569	     -9.24350748	    -10.94579973	    -41.79017767	      7.22962657	     -0.74242850	     -9.54064577	      5.63734080	      5.27051363
      3.85000000	      2.59633401	      5.89971501	    166.56685370	      0.06680187	      0.94190724	     -0.33569411	      0.63019502	      5.61912083	     -0.36980421	    -13.66010245	     15.91139779	      3.58814756	     36.39609916	     -9.28213566	    -10.78195169	    -39.04668945	      7.26269671	     -1.00906089	     -9.51104692	      5.82411441	      5.33882427
      3.86000000	      2.53765908	      6.10278918	    167.13052256	      0.05779785	      0.94051795	     -0.33583631	     -0.18173262	      5.74154888	     -0.86988385	    -13.48290265	     16.38873441	      3.55958567	     36.18893423	     -9.31083054	    -10.59816861	    -36.29956539	      7.31769376	     -1.31459643	     -9.45463323	      6.01254711	      5.40822564
